<?xml version="1.0" encoding="UTF-8" standalone="no"?>
<svg
   xmlns:dc="http://purl.org/dc/elements/1.1/"
   xmlns:cc="http://creativecommons.org/ns#"
   xmlns:rdf="http://www.w3.org/1999/02/22-rdf-syntax-ns#"
   xmlns:svg="http://www.w3.org/2000/svg"
   xmlns="http://www.w3.org/2000/svg"
   xmlns:sodipodi="http://sodipodi.sourceforge.net/DTD/sodipodi-0.dtd"
   xmlns:inkscape="http://www.inkscape.org/namespaces/inkscape"
   width="128.0px"
   height="128.0px"
   viewBox="0 0 128.0 128.0"
   version="1.1"
   id="SVGRoot"
   sodipodi:docname="ScreenToWebcam.svg"
   inkscape:version="1.0.1 (3bc2e813f5, 2020-09-07)">
  <defs
     id="defs134">
    <rect
       x="5"
       y="75"
       width="55"
       height="50"
       id="rect162" />
  </defs>
  <sodipodi:namedview
     id="base"
     pagecolor="#ffffff"
     bordercolor="#666666"
     borderopacity="1.0"
     inkscape:pageopacity="0.0"
     inkscape:pageshadow="2"
     inkscape:zoom="5.6"
     inkscape:cx="54.148841"
     inkscape:cy="52.633548"
     inkscape:document-units="px"
     inkscape:current-layer="layer1"
     inkscape:document-rotation="0"
     showgrid="true"
     inkscape:window-width="1680"
     inkscape:window-height="1000"
     inkscape:window-x="0"
     inkscape:window-y="27"
     inkscape:window-maximized="1">
    <inkscape:grid
       type="xygrid"
       id="grid143" />
  </sodipodi:namedview>
  <metadata
     id="metadata137">
    <rdf:RDF>
      <cc:Work
         rdf:about="">
        <dc:format>image/svg+xml</dc:format>
        <dc:type
           rdf:resource="http://purl.org/dc/dcmitype/StillImage" />
        <dc:title></dc:title>
      </cc:Work>
    </rdf:RDF>
  </metadata>
  <g
     inkscape:label="Layer 1"
     inkscape:groupmode="layer"
     id="layer1">
    <rect
       style="fill:#000000"
       id="rect152"
       width="80"
       height="45"
       x="25"
       y="5" />
    <rect
       style="fill:#4d4d4d"
       id="rect154"
       width="70"
       height="35"
       x="30"
       y="10" />
    <rect
       style="fill:#000000"
       id="rect156"
       width="20"
       height="10"
       x="55"
       y="50"
       ry="0" />
    <rect
       style="fill:#000000"
       id="rect158"
       width="30"
       height="5"
       x="50"
       y="55" />
    <text
       xml:space="preserve"
       id="text160"
       style="font-style:normal;font-weight:normal;font-size:40px;line-height:1.25;font-family:sans-serif;white-space:pre;shape-inside:url(#rect162);fill:#ff0000;fill-opacity:1;stroke:none;text-align:center"
       x="9.5800781"
       y="0"><tspan
         x="21.259766"
         y="111.78082"><tspan
           style="text-align:center;text-anchor:middle;fill:#ff0000">2</tspan></tspan></text>
    <ellipse
       style="fill:#000000"
       id="path170"
       cx="90"
       cy="110"
       rx="12.5"
       ry="5" />
    <ellipse
       style="fill:#333333"
       id="path172"
       cx="89.891167"
       cy="91.370895"
       r="20" />
    <circle
       style="fill:#1a1a1a"
       id="path206"
       cx="90"
       cy="94"
       r="10" />
    <circle
       style="fill:#000000"
       id="path208"
       cx="90"
       cy="94"
       r="5" />
    <path
       sodipodi:type="spiral"
       style="fill:none;fill-rule:evenodd;stroke:#000000"
       id="path210"
       sodipodi:cx="50"
       sodipodi:cy="75"
       sodipodi:expansion="0"
       sodipodi:revolution="2.9143152"
       sodipodi:radius="20.252119"
       sodipodi:argument="-17.313942"
       sodipodi:t0="0.89075613"
       d="m 60.888637,57.924113 c 9.30179,5.931394 12.118644,18.662734 6.18725,27.964524 -1.560481,2.447193 -3.6487,4.547776 -6.086638,6.122675"
       transform="matrix(0,0.92494621,-1.1742899,0,178.0197,38.681286)" />
    <path
       sodipodi:type="spiral"
       style="fill:#808080;fill-rule:evenodd;stroke:#000000"
       id="path1069"
       sodipodi:cx="55"
       sodipodi:cy="95"
       sodipodi:expansion="1"
       sodipodi:revolution="4.2673512"
       sodipodi:radius="22.470331"
       sodipodi:argument="-25.925117"
       sodipodi:t0="0.9414472"
       d="m 71.415826,81.656873 c 7.890158,8.95796 6.66027,22.962257 -2.228085,30.767927"
       transform="matrix(0,0.84387485,-1.0151607,0,189.16262,19.787383)" />
    <path
       style="fill:#808080;stroke-width:0.178571"
       d="m 83.34527,102.34529 c -4.318124,-0.98598 -9.307277,-3.721954 -11.839472,-6.492578 -0.496144,-0.542862 -0.98196,-0.987021 -1.079591,-0.987021 -0.284269,0 -0.441587,-2.202533 -0.330781,-4.631112 0.122815,-2.691791 0.657106,-4.8342 1.815381,-7.279342 0.753156,-1.589927 2.505064,-4.339546 2.764924,-4.339546 0.06883,0 0.319952,0.208787 0.558054,0.46397 0.766317,0.821291 3.954449,2.831561 5.700771,3.59461 1.700156,0.742876 4.566237,1.655706 5.198547,1.655706 0.593799,0 0.347366,0.254527 -0.749911,0.774541 -1.270325,0.602024 -2.930005,2.087354 -3.804498,3.404833 -0.346341,0.521786 -0.846734,1.58283 -1.111984,2.357878 -0.668296,1.952729 -0.667935,4.368082 9.47e-4,6.315207 0.559585,1.628966 1.806276,3.498424 2.932022,4.396684 0.461147,0.36795 0.914788,0.73564 1.008092,0.81708 0.208635,0.1821 -0.108617,0.1669 -1.0625,-0.0509 z"
       id="path1071" />
    <path
       style="fill:#4d4d4d;stroke-width:0.178571"
       d="m 97.09442,101.05631 c 3.48619,-3.543205 3.94385,-8.653254 1.146187,-12.797761 -0.79884,-1.183414 -1.541961,-1.906181 -2.816636,-2.739485 l -0.957014,-0.625637 0.867728,-0.120566 c 3.976107,-0.552459 7.962175,-1.982793 10.435515,-3.74461 l 0.81778,-0.582528 0.82722,1.548115 c 1.56449,2.927908 2.33284,6.015341 2.33676,9.389711 0.003,2.933006 -0.0607,3.124081 -1.55144,4.626895 -2.75904,2.781319 -6.27115,4.770616 -10.478995,5.935426 -0.834131,0.2309 -1.606336,0.41982 -1.716011,0.41982 -0.109676,0 0.380332,-0.58922 1.088906,-1.30938 z"
       id="path1073" />
    <path
       style="fill:#1a1a1a;stroke-width:0.178571"
       d="m 89.327413,83.848745 c -2.984137,-0.319578 -6.274068,-1.300462 -8.928572,-2.662029 -1.649669,-0.84616 -4.429818,-2.688706 -4.258758,-2.822496 0.06078,-0.04753 27.320917,1.583924 28.526417,1.707241 0.60072,0.06145 0.5927,0.07021 -0.78279,0.854817 -4.012851,2.289009 -9.738076,3.438462 -14.556297,2.922467 z"
       id="path1075" />
    <path
       style="fill:#333333;stroke-width:0.178571"
       d="m 88.613127,83.67711 c -2.616316,-0.401541 -5.617458,-1.346594 -7.885129,-2.483007 -1.423892,-0.713565 -4.34183,-2.553834 -4.228718,-2.666945 0.07348,-0.07349 4.409364,0.162051 16.399561,0.890865 3.977679,0.24178 8.156249,0.492273 9.285719,0.556652 1.12946,0.06438 2.1741,0.181461 2.32142,0.260183 0.19051,0.101797 -0.32517,0.42692 -1.78571,1.125847 -3.618216,1.731462 -6.904048,2.447862 -11.050177,2.40924 -1.435796,-0.01338 -2.81143,-0.05515 -3.056966,-0.09284 z"
       id="path1077" />
    <path
       style="fill:#333333;stroke-width:0.178571"
       d="m 87.898841,83.49201 c -0.245535,-0.04127 -1.034607,-0.232511 -1.753493,-0.424971 -0.718886,-0.19246 -1.381832,-0.303719 -1.473215,-0.247242 -0.09138,0.05648 -0.166149,0.009 -0.166149,-0.105529 0,-0.114519 -0.115344,-0.163954 -0.25632,-0.109856 -0.140976,0.0541 -0.281601,0.03786 -0.3125,-0.03608 -0.0309,-0.07394 -0.708244,-0.3955 -1.505212,-0.714578 -1.293919,-0.51804 -5.042748,-2.604845 -5.498889,-3.060986 -0.117057,-0.117057 0.09227,-0.184246 0.617564,-0.198225 0.437054,-0.01163 0.875,-3.2e-4 0.973214,0.02514 0.09821,0.02546 0.901786,0.08252 1.785715,0.126801 2.588214,0.129667 5.344359,0.287891 9.285714,0.533069 0.785714,0.04888 2.071429,0.124619 2.857143,0.168317 1.803464,0.100299 3.857028,0.221234 5.803571,0.341774 0.834822,0.0517 2.160716,0.133019 2.946426,0.180715 0.78572,0.0477 1.87054,0.14815 2.41072,0.223229 l 0.98214,0.136507 -1.71215,0.83294 c -3.839254,1.867757 -6.643875,2.465193 -11.399674,2.428339 -1.725997,-0.01338 -3.339069,-0.05809 -3.584605,-0.09936 z"
       id="path1079" />
    <path
       style="fill:#333333;stroke-width:0.178571"
       d="m 82.184556,101.93224 c -2.48845,-0.76025 -4.972755,-1.92038 -7.232143,-3.377288 -1.479393,-0.953946 -4.464007,-3.62641 -4.61875,-4.135689 -0.218107,-0.717821 -0.109731,-5.242073 0.16304,-6.806262 0.282366,-1.619203 1.195265,-4.164492 2.010107,-5.604452 0.569072,-1.005647 2.023081,-3.214286 2.116053,-3.214286 0.03815,0 0.569867,0.388994 1.181597,0.86443 2.599521,2.020346 6.128532,3.75384 9.099505,4.469791 0.663653,0.159928 1.204819,0.330957 1.202592,0.380065 -0.0022,0.04911 -0.495316,0.370535 -1.095752,0.714285 -5.816729,3.330084 -6.848588,11.099651 -2.116624,15.937496 0.648437,0.66295 1.05538,1.1999 0.904318,1.19322 -0.151062,-0.007 -0.877336,-0.19626 -1.613943,-0.42131 z"
       id="path1081" />
    <path
       style="fill:#333333;stroke-width:0.178571"
       d="m 96.460366,101.90424 c 0.141874,-0.18817 0.558846,-0.66355 0.926604,-1.05641 1.70389,-1.820176 2.67488,-4.249087 2.67699,-6.696424 0.002,-1.813147 -0.213477,-2.859901 -0.891859,-4.341409 -0.844107,-1.843433 -2.086355,-3.281712 -3.859355,-4.468373 -0.617464,-0.413265 -0.656427,-0.475933 -0.295908,-0.475933 0.776996,0 3.858833,-0.702188 5.560572,-1.266962 1.80296,-0.598364 3.86361,-1.58096 5.16896,-2.464745 l 0.79396,-0.537548 0.42529,0.748749 c 0.23392,0.411812 0.51949,0.808664 0.63462,0.881893 0.11512,0.07323 0.15574,0.134375 0.0903,0.135879 -0.0655,0.0015 0.15407,0.665681 0.48789,1.475949 0.33382,0.810268 0.6575,1.734375 0.71929,2.053571 0.0618,0.319197 0.16366,0.580718 0.22639,0.581158 0.0627,4.46e-4 0.12907,0.290876 0.14743,0.645413 0.0183,0.354537 0.0874,0.776051 0.15352,0.936699 0.0661,0.160648 0.15991,1.377288 0.20852,2.703645 0.12298,3.356042 0.0207,3.664719 -1.80481,5.445585 -1.67728,1.636282 -3.29934,2.771788 -5.57247,3.900943 -1.42674,0.70871 -4.084258,1.67912 -5.518133,2.01496 -0.505349,0.11837 -0.521093,0.10609 -0.277761,-0.21664 z"
       id="path1083" />
    <path
       style="fill:#333333;stroke-width:0.178571"
       d="m 97.166215,101.20419 c 1.000984,-1.08594 2.078888,-2.784244 2.421133,-3.814648 0.713982,-2.149611 0.648272,-5.161057 -0.156494,-7.171321 -0.618375,-1.544673 -2.075813,-3.436529 -3.46175,-4.493594 -0.983532,-0.750148 -1.067951,-0.858936 -0.666527,-0.858936 0.588231,0 3.906753,-0.714922 4.024836,-0.867087 0.04911,-0.06328 0.290178,-0.135849 0.535714,-0.161264 0.798463,-0.08265 3.796563,-1.355325 5.248483,-2.227953 0.77948,-0.468481 1.42749,-0.831482 1.44002,-0.806669 0.0125,0.02481 0.24953,0.398682 0.52668,0.830817 0.63373,0.988148 1.85657,4.35209 2.18109,6.000014 0.13811,0.701292 0.24626,2.351665 0.24637,3.759681 2.2e-4,2.453825 -0.0111,2.527352 -0.50821,3.303572 -1.70303,2.65926 -6.23971,5.498998 -11.27729,7.059028 -1.263611,0.39132 -1.346849,0.30844 -0.554055,-0.55164 z"
       id="path1085" />
    <path
       style="fill:#808080;stroke-width:0.178571"
       d="m 97.406133,100.89248 c 1.107221,-1.307681 1.985085,-2.743368 1.830448,-2.993575 -0.05985,-0.09684 -0.03431,-0.176071 0.05676,-0.176071 0.337079,0 0.748359,-2.081534 0.748359,-3.787548 0,-1.720136 -0.516375,-4.069595 -0.894431,-4.069595 -0.09119,0 -0.119798,-0.119858 -0.06358,-0.266352 0.05827,-0.15186 -0.02045,-0.313421 -0.183151,-0.375854 -0.156947,-0.06023 -0.24574,-0.173608 -0.197316,-0.251958 0.04842,-0.07835 -0.267544,-0.612341 -0.702149,-1.186646 -0.686145,-0.9067 -1.378696,-1.544814 -2.870088,-2.644492 -0.343341,-0.253163 -0.33644,-0.263708 0.178572,-0.272883 0.752795,-0.01341 3.662316,-0.6737 3.923398,-0.890378 0.119133,-0.09887 0.255913,-0.140458 0.303957,-0.09241 0.254515,0.254515 4.434238,-1.553022 6.267978,-2.710606 0.66702,-0.421076 0.70788,-0.426083 0.94135,-0.11537 0.80847,1.075959 2.07881,4.40254 2.51076,6.574812 0.35654,1.793007 0.3352,6.011728 -0.034,6.725717 -0.92205,1.783048 -4.32995,4.441863 -7.60977,5.937089 -1.47575,0.67277 -4.42832,1.7122 -4.863616,1.7122 -0.195516,0 0.016,-0.35957 0.65654,-1.11607 z"
       id="path1087" />
    <path
       style="fill:#808080;stroke-width:0.178571"
       d="m 81.427755,101.57323 c -3.75354,-1.29212 -6.737781,-3.058748 -9.399489,-5.564368 l -1.665523,-1.567854 0.07621,-3.493015 c 0.07351,-3.369302 0.09704,-3.556262 0.664462,-5.27873 0.323541,-0.982143 0.830395,-2.267857 1.126342,-2.857143 0.569149,-1.13328 2.254653,-3.839286 2.391396,-3.839286 0.04443,0 0.792108,0.510774 1.661516,1.135053 2.427264,1.7429 5.997248,3.457264 8.449569,4.057621 0.468187,0.114618 0.890896,0.272545 0.939352,0.350949 0.04846,0.07841 -0.386139,0.430641 -0.965769,0.782747 -1.483264,0.901035 -3.091381,2.683881 -3.835885,4.252669 -1.81984,3.834692 -1.219762,7.909463 1.670093,11.340607 0.599723,0.71205 0.986065,1.2912 0.858539,1.287 -0.127526,-0.004 -1.01439,-0.27702 -1.970809,-0.60625 z"
       id="path1089" />
    <path
       sodipodi:type="spiral"
       style="fill:none;fill-rule:evenodd;stroke:#000000"
       id="path1091"
       sodipodi:cx="76.403786"
       sodipodi:cy="116.07625"
       sodipodi:expansion="1"
       sodipodi:revolution="4.2673502"
       sodipodi:radius="7.0710678"
       sodipodi:argument="-27.59795"
       sodipodi:t0="0.91833353"
       d="m 69.999997,115 c 0.460879,-3.64079 3.942854,-6.20143 7.548696,-5.73607 1.435467,0.18526 2.794731,0.82821 3.855094,1.81232" />
  </g>
</svg>
